<svg version="1.1" id="Layer_1" xmlns="http://www.w3.org/2000/svg" xmlns:xlink="http://www.w3.org/1999/xlink" x="0px" y="0px"
	  width="350px" height="200px" viewBox="0 0 536.9 267.1" enable-background="new 0 0 536.9 267.1" xml:space="preserve">
<g>
	<path fill="#127ABC" d="M266.8,51.6c-12.8,0-22.3-9.4-22.6-22.1c-0.3-12.9,10.2-23.3,23.1-23c12.2,0.3,22.4,10.9,22.2,22.9
		C289.2,42.1,279.5,51.6,266.8,51.6z"/>
	<g>
		<path fill="#127ABC" d="M266.9,170.9c-0.1,0-0.1,0.1-0.2,0.1c-21.7-23.3-24.1-54.6-6.5-75.2c2.2-2.6,5.8-6,6.7-6.8v-22
			c-0.1,0-0.1,0.1-0.1,0.1s-4.4-2.5-6-3.4c-36.3-18.4-77.3,2.8-97.5,32.9c4.7,3.7,9.4,7.4,14.3,11.2c19-19.3,38-36.2,69-30.4
			c-3.2,6.3-5.3,10.3-7.4,14.5c-17.2,34.5-12.4,68.2,13.4,95.3c7.1,7.4,14.4,10.8,14.4,10.8V170.9z"/>
		<path fill="#127ABC" d="M266.9,170.9c0.1,0,0.1,0.1,0.2,0.1c21.7-23.3,24.1-54.6,6.5-75.2c-2.2-2.6-5.8-6-6.7-6.8v-22
			c0.1,0,0.1,0.1,0.1,0.1s4.4-2.5,6-3.4c36.3-18.4,77.3,2.8,97.5,32.9c-4.7,3.7-9.4,7.4-14.3,11.2c-19-19.3-38-36.2-69-30.4
			c3.2,6.3,5.3,10.3,7.4,14.5c17.2,34.5,12.4,68.2-13.4,95.3c-7.1,7.4-14.4,10.8-14.4,10.8V170.9z"/>
	</g>
</g>
<text transform="matrix(1 0 0 1 0 267.125)"><tspan x="0" y="0" fill="#127ABC" font-family="'CenturyGothic'" font-size="50">Centro Médico </tspan><tspan x="383.8" y="0" fill="#127ABC" font-family="'CenturyGothic-Bold'" font-size="50">Nacer</tspan></text>
</svg>
